#!OML:ASF H:\Terrain\Patient Classification 1\Animal2\Wednesday\Animal2.ASF
:FULLY-SPECIFIED
:DEGREES
1
root 10.9063 18.1691 -0.614412 -178.548 9.70651 -177.686
lowerback 0.485334 -1.72434 4.10871
upperback -6.37361 -1.47482 3.19178
thorax -6.95963 -0.656864 1.11332
lowerneck 14.0475 12.3114 19.7253
upperneck 1.36038 19.648 -12.4965
head 1.34819 10.3485 -6.85829
rclavicle -5.56597e-015 -1.59028e-014
rhumerus -28.1876 -6.97814 -81.67
rradius 17.4901
rwrist 28.3051
rhand -24.8117 5.8456
rfingers 7.12502
rthumb 1.6934 -24.1274
lclavicle -5.56597e-015 -1.59028e-014
lhumerus -67.2767 -33.2751 117.816
lradius 48.2035
lwrist 62.6077
lhand -36.976 50.5307
lfingers 7.12502
lthumb -10.0515 80.2707
rfemur 0.385369 -10.0618 26.6858
rtibia 22.5575
rfoot -14.1936 -5.63666
rtoes 7.85983
lfemur -12.6789 5.88739 -21.3257
ltibia 22.5406
lfoot -16.7018 13.8521
ltoes 0.176421
2
root 10.9109 18.1548 -0.665628 -178.551 9.64113 -177.597
lowerback 0.486809 -1.81907 4.09888
upperback -6.31895 -1.59828 3.30117
thorax -6.9002 -0.712574 1.24001
lowerneck 14.3846 12.3803 19.551
upperneck 0.980559 19.7385 -12.5076
head 1.18311 10.3894 -6.8777
rclavicle 1.45113e-014 -3.02153e-014
rhumerus -28.2351 -7.27494 -81.3189
rradius 17.6226
rwrist 29.1357
rhand -23.653 4.30701
rfingers 7.12502
rthumb 2.81243 -25.6542
lclavicle 1.45113e-014 -3.02153e-014
lhumerus -66.9976 -33.3512 117.914
lradius 48.35
lwrist 62.6732
lhand -37.3278 50.2408
lfingers 7.12502
lthumb -10.3909 79.9641
rfemur 0.414104 -10.17 26.6787
rtibia 22.9007
rfoot -14.2236 -5.4359
rtoes 7.9641
lfemur -12.6875 5.44403 -21.2489
ltibia 22.7931
lfoot -15.7195 13.1289
ltoes 5.09669
3
root 10.914 18.1236 -0.719166 -178.584 9.59485 -177.527
lowerback 0.552865 -1.87613 4.06338
upperback -6.33608 -1.6614 3.38242
thorax -6.95427 -0.737305 1.35161
lowerneck 14.6925 12.3701 19.5759
upperneck 0.878186 19.7845 -12.545
head 1.11939 10.4215 -6.91925
rclavicle -2.22639e-014 -2.94201e-014
rhumerus -28.5384 -7.19151 -81.0431
rradius 17.8358
rwrist 29.176
rhand -22.908 4.21173
rfingers 7.12502
rthumb 3.53199 -25.7388
lclavicle -2.22639e-014 -2.94201e-014
lhumerus -66.7331 -33.488 117.975
lradius 48.4482
lwrist 62.671
lhand -37.5922 50.6563
lfingers 7.12502
lthumb -10.646 80.3666
rfemur 0.379322 -10.4355 26.6351
rtibia 23.4969
rfoot -14.3966 -5.49148
rtoes 5.77305
lfemur -12.6334 5.12423 -21.1992
ltibia 23.285
lfoot -15.6141 12.6799
ltoes 8.00955
4
root 10.9214 18.0863 -0.770974 -178.654 9.56493 -177.333
lowerback 0.825097 -1.67106 4.08841
upperback -6.20097 -1.40248 3.28694
thorax -6.96686 -0.622789 1.22497
lowerneck 13.5573 12.2777 20.3408
upperneck 1.60331 19.603 -12.6239
head 1.55972 10.319 -6.92289
rclavicle -5.78463e-014 4.92986e-014
rhumerus -28.6422 -8.13893 -80.7069
rradius 17.7058
rwrist 28.8042
rhand -23.5204 6.04737
rfingers 7.12502
rthumb 2.94052 -23.9121
lclavicle -5.78463e-014 4.92986e-014
lhumerus -66.4649 -34.6398 118.18
lradius 48.264
lwrist 62.4768
lhand -36.3958 50.5719
lfingers 7.12502
lthumb -9.49169 80.3381
rfemur 0.387587 -10.6002 26.7991
rtibia 24.1283
rfoot -14.4676 -5.99204
rtoes 1.56352
lfemur -12.4453 5.21075 -20.9961
ltibia 23.6664
lfoot -15.6294 12.8115
ltoes 5.39273
5
root 10.9306 18.0639 -0.821192 -178.656 9.63121 -177.191
lowerback 0.948376 -1.87113 4.07378
upperback -6.28556 -1.6242 3.53059
thorax -7.12612 -0.716048 1.51034
lowerneck 14.3524 12.4064 19.7606
upperneck 1.21748 19.8254 -12.5371
head 1.29561 10.4427 -6.89267
rclavicle 3.33958e-014 1.66979e-014
rhumerus -28.9488 -7.80997 -80.4267
rradius 17.4788
rwrist 28.8622
rhand -24.1118 8.21338
rfingers 7.12502
rthumb 2.36934 -21.7532
lclavicle 3.33958e-014 1.66979e-014
lhumerus -66.0666 -34.2324 118.217
lradius 48.2052
lwrist 62.6287
lhand -36.7277 52.6668
lfingers 7.12502
lthumb -9.81198 82.4182
rfemur 0.254958 -10.468 26.9002
rtibia 24.8116
rfoot -14.808 -5.96235
rtoes 1.34694
lfemur -12.3899 5.59322 -20.8198
ltibia 24.1189
lfoot -15.7999 13.3165
ltoes 2.01213
6
root 10.937 18.0508 -0.876461 -178.674 9.70269 -177.076
lowerback 0.988013 -1.90954 4.02181
upperback -6.20247 -1.67608 3.64302
thorax -7.05487 -0.735073 1.65963
lowerneck 14.4419 12.5134 19.4651
upperneck 1.01339 19.9076 -12.351
head 1.18745 10.4703 -6.81153
rclavicle 6.75868e-015 1.19271e-014
rhumerus -28.9934 -8.08161 -80.1159
rradius 17.2656
rwrist 29.3203
rhand -24.0567 7.99338
rfingers 7.12502
rthumb 2.4226 -21.9726
lclavicle 6.75868e-015 1.19271e-014
lhumerus -65.519 -34.4144 118.178
lradius 48.3786
lwrist 62.8001
lhand -37.0162 53.238
lfingers 7.12502
lthumb -10.0903 82.9761
rfemur -0.0334455 -10.4701 26.8277
rtibia 25.8641
rfoot -15.6128 -5.04575
rtoes 4.89514
lfemur -12.1714 5.95437 -20.6388
ltibia 24.2362
lfoot -16.5325 13.3972
ltoes 3.35868
7
root 10.9471 18.0313 -0.932671 -178.895 9.85201 -176.551
lowerback 1.32577 -1.84414 4.32978
upperback -5.97316 -1.57225 3.73914
thorax -7.0137 -0.702839 1.5862
lowerneck 13.8857 12.5386 19.8173
upperneck 1.36 19.9017 -12.2905
head 1.40233 10.4569 -6.77367
rclavicle -7.81224e-014 1.11319e-014
rhumerus -28.9042 -9.54447 -79.4883
rradius 16.9426
rwrist 31.4401
rhand -23.0223 6.24806
rfingers 7.12502
rthumb 3.42153 -23.7042
lclavicle -7.81224e-014 1.11319e-014
lhumerus -64.8752 -34.9313 117.992
lradius 48.4706
lwrist 62.9427
lhand -37.4744 52.4543
lfingers 7.12502
lthumb -10.5323 82.1704
rfemur -0.106264 -10.5167 27.2202
rtibia 27.0218
rfoot -16.179 -4.76363
rtoes 6.151
lfemur -11.6686 6.5593 -19.9201
ltibia 24.237
lfoot -16.559 13.2645
ltoes 0.395105
8
root 10.941 18.0121 -0.986032 -178.945 9.82835 -177.998
lowerback 1.2105 -1.88843 2.91282
upperback -6.07466 -1.77519 3.31297
thorax -7.0078 -0.756866 1.94349
lowerneck 14.0303 12.5032 20.0578
upperneck 1.36226 19.9179 -12.2967
head 1.40744 10.4706 -6.81547
rclavicle -2.10712e-014 3.81667e-014
rhumerus -29.0964 -11.0297 -78.7692
rradius 16.6611
rwrist 34.1545
rhand -21.8931 5.22479
rfingers 7.12502
rthumb 4.51195 -24.7072
lclavicle -2.10712e-014 3.81667e-014
lhumerus -64.2274 -35.0046 117.663
lradius 48.2816
lwrist 62.6566
lhand -37.2456 51.9459
lfingers 7.12502
lthumb -10.3116 81.6731
rfemur -0.784192 -11.2695 25.3638
rtibia 28.3446
rfoot -16.5076 -4.50468
rtoes 4.46535
lfemur -11.6134 7.31944 -21.5226
ltibia 24.1394
lfoot -16.0649 12.891
ltoes -5.28954
9
root 10.9518 17.9839 -1.04756 -179.192 10.0397 -178.371
lowerback 1.35304 -1.91579 2.37973
upperback -6.05482 -1.85353 3.26148
thorax -7.04789 -0.774411 2.19768
lowerneck 14.3468 12.5186 19.9864
upperneck 1.20298 19.9725 -12.1705
head 1.30099 10.4982 -6.79918
rclavicle -6.55989e-015 8.74653e-015
rhumerus -29.4145 -11.4212 -78.3998
rradius 16.5587
rwrist 35.5308
rhand -21.532 4.53999
rfingers 7.12502
rthumb 4.86071 -25.3843
lclavicle -6.55989e-015 8.74653e-015
lhumerus -63.5342 -34.8258 117.299
lradius 48.0974
lwrist 62.3044
lhand -36.866 51.7919
lfingers 7.12502
lthumb -9.9454 81.537
rfemur -1.06641 -11.3321 24.7953
rtibia 29.707
rfoot -16.8341 -4.47177
rtoes 3.65615
lfemur -11.0924 7.87225 -21.8125
ltibia 24.0516
lfoot -16.0808 12.4953
ltoes -7.06115
10
root 10.9718 17.9625 -1.10465 -179.454 10.3634 -178.284
lowerback 1.62616 -1.83729 2.18851
upperback -5.88604 -1.77375 3.28823
thorax -7.01847 -0.732802 2.33173
lowerneck 13.9931 12.5473 20.1119
upperneck 1.46071 19.9706 -12.0331
head 1.42953 10.49 -6.73227
rclavicle 2.28602e-014 -7.95139e-016
rhumerus -29.4952 -12.1362 -78.0772
rradius 16.0745
rwrist 36.0414
rhand -22.0062 4.93516
rfingers 7.12502
rthumb 4.40282 -24.9991
lclavicle 2.28602e-014 -7.95139e-016
lhumerus -62.6714 -34.9795 116.783
lradius 48.1229
lwrist 62.0362
lhand -36.8217 52.6105
lfingers 7.12502
lthumb -9.90266 82.3576
rfemur -1.41003 -10.9896 24.871
rtibia 31.1979
rfoot -17.0409 -4.68169
rtoes 3.82175
lfemur -10.431 8.0238 -21.5671
ltibia 23.8366
lfoot -15.8941 12.7191
ltoes -9.90152
